<mxfile host="app.diagrams.net" agent="Mozilla/5.0 (Windows NT 10.0; Win64; x64) AppleWebKit/537.36 (KHTML, like Gecko) Chrome/120.0.0.0 Safari/537.36" version="27.0.4">
  <diagram name="第 1 页" id="PbcMibbgWmuMVIqtDwqZ">
    <mxGraphModel dx="1213" dy="730" grid="1" gridSize="10" guides="1" tooltips="1" connect="1" arrows="1" fold="1" page="1" pageScale="1" pageWidth="705" pageHeight="515" math="0" shadow="0">
      <root>
        <mxCell id="0" />
        <mxCell id="1" parent="0" />
        <mxCell id="BwQvlg6VbiH7elFapgid-1" value="" style="edgeStyle=orthogonalEdgeStyle;rounded=0;orthogonalLoop=1;jettySize=auto;html=1;fontFamily=Verdana;fontSize=18;" edge="1" source="BwQvlg6VbiH7elFapgid-2" target="BwQvlg6VbiH7elFapgid-4" parent="1">
          <mxGeometry relative="1" as="geometry" />
        </mxCell>
        <mxCell id="BwQvlg6VbiH7elFapgid-2" value="&lt;font style=&quot;vertical-align: inherit;&quot;&gt;&lt;font style=&quot;vertical-align: inherit; font-size: 16px;&quot;&gt;&lt;span style=&quot;font-family: 宋体; font-size: 18px;&quot;&gt;开始&lt;/span&gt;&lt;/font&gt;&lt;/font&gt;" style="rounded=1;whiteSpace=wrap;html=1;fontSize=18;glass=0;strokeWidth=1;shadow=0;fontFamily=Verdana;fillColor=#d5e8d4;strokeColor=#82b366;" vertex="1" parent="1">
          <mxGeometry x="270" y="50" width="120" height="40" as="geometry" />
        </mxCell>
        <mxCell id="BwQvlg6VbiH7elFapgid-3" value="" style="edgeStyle=orthogonalEdgeStyle;rounded=0;orthogonalLoop=1;jettySize=auto;html=1;fontFamily=Verdana;fontSize=18;" edge="1" source="BwQvlg6VbiH7elFapgid-4" target="BwQvlg6VbiH7elFapgid-6" parent="1">
          <mxGeometry relative="1" as="geometry" />
        </mxCell>
        <mxCell id="BwQvlg6VbiH7elFapgid-4" value="&lt;span style=&quot;font-family: 宋体;&quot;&gt;&lt;font style=&quot;font-size: 18px;&quot;&gt;计算模型的建立&lt;/font&gt;&lt;/span&gt;" style="rounded=0;whiteSpace=wrap;html=1;fontFamily=Verdana;fontSize=18;fillColor=#dae8fc;strokeColor=#6c8ebf;" vertex="1" parent="1">
          <mxGeometry x="240" y="130" width="180" height="50" as="geometry" />
        </mxCell>
        <mxCell id="BwQvlg6VbiH7elFapgid-5" value="" style="edgeStyle=orthogonalEdgeStyle;rounded=0;orthogonalLoop=1;jettySize=auto;html=1;fontFamily=Verdana;fontSize=18;" edge="1" source="BwQvlg6VbiH7elFapgid-6" target="BwQvlg6VbiH7elFapgid-7" parent="1">
          <mxGeometry relative="1" as="geometry" />
        </mxCell>
        <mxCell id="BwQvlg6VbiH7elFapgid-6" value="&lt;span style=&quot;font-family: 宋体;&quot;&gt;&lt;font style=&quot;font-size: 18px;&quot;&gt;引入延迟和能耗的权重因子构建综合成本问题模型&lt;/font&gt;&lt;/span&gt;" style="rounded=0;whiteSpace=wrap;html=1;fontFamily=Verdana;fontSize=18;fillColor=#dae8fc;strokeColor=#6c8ebf;" vertex="1" parent="1">
          <mxGeometry x="190" y="220" width="280" height="60" as="geometry" />
        </mxCell>
        <mxCell id="BwQvlg6VbiH7elFapgid-21" style="edgeStyle=orthogonalEdgeStyle;rounded=0;orthogonalLoop=1;jettySize=auto;html=1;exitX=1;exitY=0.5;exitDx=0;exitDy=0;entryX=0;entryY=0.5;entryDx=0;entryDy=0;" edge="1" parent="1" source="BwQvlg6VbiH7elFapgid-7" target="BwQvlg6VbiH7elFapgid-9">
          <mxGeometry relative="1" as="geometry">
            <Array as="points">
              <mxPoint x="500" y="335" />
              <mxPoint x="500" y="225" />
            </Array>
          </mxGeometry>
        </mxCell>
        <mxCell id="BwQvlg6VbiH7elFapgid-22" style="edgeStyle=orthogonalEdgeStyle;rounded=0;orthogonalLoop=1;jettySize=auto;html=1;exitX=1;exitY=0.5;exitDx=0;exitDy=0;entryX=0;entryY=0.5;entryDx=0;entryDy=0;" edge="1" parent="1" source="BwQvlg6VbiH7elFapgid-7" target="BwQvlg6VbiH7elFapgid-11">
          <mxGeometry relative="1" as="geometry" />
        </mxCell>
        <mxCell id="BwQvlg6VbiH7elFapgid-7" value="&lt;span style=&quot;font-family: 宋体;&quot;&gt;问题模型分解&lt;/span&gt;" style="rounded=0;whiteSpace=wrap;html=1;fontFamily=Verdana;fontSize=18;fillColor=#dae8fc;strokeColor=#6c8ebf;" vertex="1" parent="1">
          <mxGeometry x="250" y="310" width="160" height="50" as="geometry" />
        </mxCell>
        <mxCell id="BwQvlg6VbiH7elFapgid-24" value="" style="edgeStyle=orthogonalEdgeStyle;rounded=0;orthogonalLoop=1;jettySize=auto;html=1;" edge="1" parent="1" source="BwQvlg6VbiH7elFapgid-9" target="BwQvlg6VbiH7elFapgid-10">
          <mxGeometry relative="1" as="geometry" />
        </mxCell>
        <mxCell id="BwQvlg6VbiH7elFapgid-9" value="&lt;font style=&quot;vertical-align: inherit; font-size: 18px;&quot;&gt;&lt;font style=&quot;vertical-align: inherit; font-size: 18px;&quot;&gt;&lt;span style=&quot;font-family: 宋体;&quot;&gt;资源分配问题&lt;/span&gt;&lt;/font&gt;&lt;/font&gt;" style="rounded=0;whiteSpace=wrap;html=1;fontFamily=Verdana;fontSize=18;fillColor=#fff2cc;strokeColor=#d6b656;" vertex="1" parent="1">
          <mxGeometry x="540" y="200" width="140" height="50" as="geometry" />
        </mxCell>
        <mxCell id="BwQvlg6VbiH7elFapgid-26" style="edgeStyle=orthogonalEdgeStyle;rounded=0;orthogonalLoop=1;jettySize=auto;html=1;entryX=0;entryY=0.5;entryDx=0;entryDy=0;" edge="1" parent="1" source="BwQvlg6VbiH7elFapgid-10" target="BwQvlg6VbiH7elFapgid-13">
          <mxGeometry relative="1" as="geometry" />
        </mxCell>
        <mxCell id="BwQvlg6VbiH7elFapgid-10" value="&lt;font style=&quot;vertical-align: inherit; font-size: 18px;&quot;&gt;&lt;font face=&quot;宋体&quot; style=&quot;vertical-align: inherit; font-size: 18px;&quot;&gt;根据数学变化转化成凸优化问题用凸优化工具解决&lt;/font&gt;&lt;/font&gt;" style="rounded=0;whiteSpace=wrap;html=1;fontFamily=Verdana;fontSize=18;fillColor=#fff2cc;strokeColor=#d6b656;" vertex="1" parent="1">
          <mxGeometry x="720" y="185" width="250" height="80" as="geometry" />
        </mxCell>
        <mxCell id="BwQvlg6VbiH7elFapgid-25" value="" style="edgeStyle=orthogonalEdgeStyle;rounded=0;orthogonalLoop=1;jettySize=auto;html=1;" edge="1" parent="1" source="BwQvlg6VbiH7elFapgid-11" target="BwQvlg6VbiH7elFapgid-17">
          <mxGeometry relative="1" as="geometry" />
        </mxCell>
        <mxCell id="BwQvlg6VbiH7elFapgid-11" value="&lt;font style=&quot;vertical-align: inherit; font-size: 18px;&quot;&gt;&lt;font style=&quot;vertical-align: inherit; font-size: 18px;&quot;&gt;&lt;span style=&quot;font-family: 宋体;&quot;&gt;计算卸载问题&lt;/span&gt;&lt;/font&gt;&lt;/font&gt;" style="rounded=0;whiteSpace=wrap;html=1;fontFamily=Verdana;fontSize=18;fillColor=#ffe6cc;strokeColor=#d79b00;" vertex="1" parent="1">
          <mxGeometry x="535" y="310" width="145" height="50" as="geometry" />
        </mxCell>
        <mxCell id="BwQvlg6VbiH7elFapgid-28" style="edgeStyle=orthogonalEdgeStyle;rounded=0;orthogonalLoop=1;jettySize=auto;html=1;exitX=1;exitY=0.5;exitDx=0;exitDy=0;entryX=0;entryY=0.5;entryDx=0;entryDy=0;" edge="1" parent="1" source="BwQvlg6VbiH7elFapgid-13" target="BwQvlg6VbiH7elFapgid-14">
          <mxGeometry relative="1" as="geometry" />
        </mxCell>
        <mxCell id="BwQvlg6VbiH7elFapgid-13" value="&lt;font style=&quot;vertical-align: inherit;&quot;&gt;&lt;font size=&quot;1&quot; style=&quot;vertical-align: inherit;&quot;&gt;&lt;span style=&quot;font-family: 宋体; font-size: 18px;&quot;&gt;交替优化寻找最优解&lt;/span&gt;&lt;/font&gt;&lt;/font&gt;" style="rounded=0;whiteSpace=wrap;html=1;fontFamily=Verdana;fontSize=18;fillColor=#f8cecc;strokeColor=#b85450;" vertex="1" parent="1">
          <mxGeometry x="1020" y="250" width="180" height="50" as="geometry" />
        </mxCell>
        <mxCell id="BwQvlg6VbiH7elFapgid-14" value="&lt;font style=&quot;vertical-align: inherit; font-size: 18px;&quot;&gt;&lt;font face=&quot;宋体&quot; style=&quot;vertical-align: inherit; font-size: 18px;&quot;&gt;结束&lt;/font&gt;&lt;/font&gt;" style="rounded=1;whiteSpace=wrap;html=1;fontSize=18;glass=0;strokeWidth=1;shadow=0;fontFamily=Verdana;fillColor=#d5e8d4;strokeColor=#82b366;" vertex="1" parent="1">
          <mxGeometry x="1240" y="255" width="120" height="40" as="geometry" />
        </mxCell>
        <mxCell id="BwQvlg6VbiH7elFapgid-27" style="edgeStyle=orthogonalEdgeStyle;rounded=0;orthogonalLoop=1;jettySize=auto;html=1;entryX=0;entryY=0.5;entryDx=0;entryDy=0;" edge="1" parent="1" source="BwQvlg6VbiH7elFapgid-17" target="BwQvlg6VbiH7elFapgid-13">
          <mxGeometry relative="1" as="geometry">
            <mxPoint x="1020" y="280" as="targetPoint" />
          </mxGeometry>
        </mxCell>
        <mxCell id="BwQvlg6VbiH7elFapgid-17" value="&lt;font face=&quot;宋体&quot; style=&quot;font-size: 18px;&quot;&gt;将离散粒子群优化算法与混沌映射和柯西变异相结合，并基于变量更新动态调整权值和学习因子来进行优化&lt;/font&gt;" style="rounded=0;whiteSpace=wrap;html=1;fontFamily=Verdana;fontSize=18;fillColor=#ffe6cc;strokeColor=#d79b00;" vertex="1" parent="1">
          <mxGeometry x="720" y="282.5" width="250" height="105" as="geometry" />
        </mxCell>
      </root>
    </mxGraphModel>
  </diagram>
</mxfile>
